<svg width="199" height="168" viewBox="0 0 199 168" fill="none" xmlns="http://www.w3.org/2000/svg">
<path d="M99.3379 161.416C90.7106 157.686 83.1788 152.619 76.7344 146.217C70.2901 139.814 65.1933 132.324 61.4434 123.738C57.7019 115.173 55.8281 106.031 55.8281 96.2998C55.8281 86.5678 57.7032 77.4249 61.4473 68.8613C65.1999 60.2768 70.2979 52.7822 76.7412 46.3691C83.1857 39.955 90.7154 34.879 99.3398 31.1436L99.3408 31.1445C107.948 27.4188 117.135 25.5528 126.914 25.5527C134.962 25.5527 142.713 26.8345 150.172 29.3965C157.635 31.9597 164.604 35.6917 171.08 40.5967L171.772 41.1211L172.389 40.5088L177.919 35.0068V35.0059C179.345 33.5852 181.095 32.873 183.235 32.873C185.374 32.8732 187.123 33.5859 188.551 35.0068C189.977 36.426 190.69 38.165 190.69 40.291C190.69 42.2829 190.063 43.9362 188.81 45.3057L188.551 45.5752L183.021 51.0771L182.398 51.6963L182.932 52.3936C187.861 58.8391 191.603 65.7661 194.162 73.1768C196.72 80.5846 198 88.2906 198 96.2998C198 106.03 196.127 115.173 192.386 123.738C188.636 132.324 183.538 139.814 177.094 146.217C170.649 152.619 163.118 157.686 154.49 161.416C145.882 165.137 136.693 167 126.914 167C117.135 167 107.946 165.137 99.3379 161.416ZM126.914 41.2881C111.634 41.2881 98.5807 46.6568 87.8115 57.374C77.0434 68.0916 71.6475 81.0858 71.6475 96.2998C71.6475 111.513 77.0429 124.499 87.8115 135.201C98.5808 145.904 111.634 151.265 126.914 151.265C142.194 151.265 155.247 145.904 166.017 135.201C176.785 124.499 182.181 111.513 182.181 96.2998C182.181 81.0858 176.786 68.0915 166.018 57.374C155.248 46.6567 142.194 41.2881 126.914 41.2881ZM19.0957 120.196H38.5146C41.0895 120.196 43.2149 121.035 44.9541 122.704V122.705C46.6901 124.375 47.5488 126.397 47.5488 128.837C47.5488 131.276 46.6906 133.299 44.9551 134.969C43.2157 136.639 41.09 137.479 38.5146 137.479H19.0957C16.5204 137.479 14.3947 136.639 12.6553 134.969C10.9182 133.299 10.0596 131.276 10.0596 128.837C10.0596 126.55 10.8149 124.629 12.3408 123.022L12.6562 122.705C14.3956 121.035 16.5205 120.196 19.0957 120.196ZM10.0361 85.375H38.5146C41.0895 85.375 43.2149 86.2134 44.9541 87.8828V87.8838C46.6901 89.5532 47.5487 91.5761 47.5488 94.0156C47.5488 96.4549 46.6906 98.4781 44.9551 100.147C43.2157 101.817 41.09 102.657 38.5146 102.657H10.0361C7.46081 102.657 5.33508 101.817 3.5957 100.147C1.85866 98.478 1 96.4547 1 94.0156C1.00008 91.5763 1.85923 89.5533 3.59668 87.8838C5.33599 86.214 7.461 85.375 10.0361 85.375ZM19.0957 50.5537H38.5146C41.0895 50.5537 43.2149 51.3922 44.9541 53.0615V53.0625C46.6901 54.7319 47.5487 56.7549 47.5488 59.1943C47.5488 61.634 46.6902 63.6577 44.9541 65.3271C43.2148 66.9968 41.0897 67.8359 38.5146 67.8359H19.0957C16.5206 67.8359 14.3956 66.9969 12.6562 65.3271C10.9187 63.6576 10.0596 61.6338 10.0596 59.1943C10.0597 56.7551 10.9188 54.7319 12.6562 53.0625C14.3956 51.3927 16.5206 50.5537 19.0957 50.5537ZM110.499 1H143.329C145.496 1 147.266 1.71868 148.704 3.15039C150.142 4.58192 150.863 6.3404 150.863 8.49316C150.863 10.5007 150.23 12.1793 148.962 13.5801L148.699 13.8564C147.26 15.3087 145.492 16.0361 143.329 16.0361H110.499C108.471 16.0361 106.792 15.3966 105.403 14.1201L105.129 13.8564C103.685 12.4014 102.965 10.6346 102.965 8.49316C102.965 6.35352 103.684 4.59581 105.125 3.15625C106.564 1.71986 108.333 1 110.499 1Z" fill="#8EA0B1" fill-opacity="0.1" stroke="#8EA0B1" stroke-width="2"/>
<path d="M135.865 96H125.765V75.5L120.115 81.1L114.415 75.15L127.165 62.65H135.865V96Z" fill="#E30613"/>
<path d="M117.77 121H114.62V110.92L110.3 121H109.04L104.69 110.92V121H101.54V106.51H105.65L109.67 115.87L113.63 106.51H117.77V121ZM124.273 121H121.243V106.51H124.393V116.26L131.053 106.51H134.203V121H131.053V110.98L124.273 121ZM140.844 121H137.694V106.51H140.844V112.21H147.504V106.51H150.654V121H147.504V114.97H140.844V121Z" fill="#E30613"/>
</svg>
