<svg width="143" height="168" viewBox="0 0 143 168" fill="none" xmlns="http://www.w3.org/2000/svg">
<path d="M71.5 25.5527C79.4809 25.5527 87.1672 26.834 94.5635 29.3955C101.965 31.9582 108.876 35.6901 115.299 40.5947L115.995 41.126L116.614 40.5059L122.099 35.0039L122.1 35.0029C123.513 33.5836 125.245 32.873 127.363 32.873C129.48 32.8731 131.212 33.584 132.627 35.0039C134.041 36.4225 134.75 38.1624 134.75 40.291C134.75 42.2852 134.127 43.9395 132.884 45.3086L132.627 45.5781L127.143 51.0801L126.527 51.6963L127.054 52.3896C131.943 58.8351 135.654 65.7627 138.192 73.1738C140.73 80.5824 142 88.2896 142 96.2998C142 105.728 140.257 114.604 136.773 122.937L136.431 123.741C132.711 132.327 127.655 139.818 121.264 146.22C114.872 152.622 107.402 157.688 98.8457 161.418C90.3091 165.138 81.1972 167 71.5 167C61.8028 167 52.6909 165.138 44.1543 161.418C35.5982 157.688 28.1282 152.622 21.7363 146.22C15.5445 140.018 10.6062 132.794 6.92188 124.543L6.56934 123.741C2.85797 115.176 1 106.032 1 96.2998C1.00001 86.5667 2.85938 77.4226 6.57324 68.8584C10.2956 60.2734 15.3525 52.7789 21.7432 46.3662C28.1352 39.9522 35.6038 34.8774 44.1572 31.1426C52.6923 27.4177 61.8032 25.5527 71.5 25.5527ZM71.5 41.2881C56.339 41.2881 43.3887 46.6587 32.7061 57.377C22.0248 68.0951 16.6748 81.0884 16.6748 96.2998C16.6748 111.51 22.0253 124.495 32.707 135.198C43.3897 145.902 56.3396 151.265 71.5 151.265C86.6604 151.265 99.6103 145.902 110.293 135.198C120.975 124.495 126.325 111.51 126.325 96.2998C126.325 81.0884 120.975 68.0951 110.294 57.377C99.6113 46.6587 86.661 41.2881 71.5 41.2881ZM55.2178 1H87.7822C89.9271 1.00008 91.6787 1.71677 93.1045 3.14746C94.5305 4.5784 95.246 6.33782 95.2461 8.49316C95.2461 10.5032 94.6173 12.1825 93.3594 13.583L93.0996 13.8594C91.6728 15.3106 89.9228 16.0361 87.7822 16.0361H55.2178C53.2109 16.0361 51.5476 15.3985 50.1719 14.123L49.9004 13.8594C48.4692 12.4049 47.7539 10.6371 47.7539 8.49316C47.754 6.35095 48.4691 4.59328 49.8975 3.1543L49.8965 3.15332C51.3225 1.71805 53.0741 1.00008 55.2178 1Z" fill="#8EA0B1" fill-opacity="0.1" stroke="#8EA0B1" stroke-width="2"/>
<path d="M82.9064 96H72.8064V90.65H56.7564V82.9L68.9064 62.65H82.9064V81.85H86.7564V90.65H82.9064V96ZM72.8064 81.85V71.35L66.5064 81.85H72.8064Z" fill="#E30613"/>
<path d="M63.02 121H59.87V110.92L55.55 121H54.29L49.94 110.92V121H46.79V106.51H50.9L54.92 115.87L58.88 106.51H63.02V121ZM69.5227 121H66.4927V106.51H69.6427V116.26L76.3027 106.51H79.4527V121H76.3027V110.98L69.5227 121ZM86.0935 121H82.9435V106.51H86.0935V112.21H92.7535V106.51H95.9035V121H92.7535V114.97H86.0935V121Z" fill="#E30613"/>
</svg>
